#!OML:ASF E:/inclinewalkrobotboard/Project1/Captureday1/Session1/subject1.ASF
:FULLY-SPECIFIED
:DEGREES
388
root 0 0 0 -1.8726209197601529 0.7822695010253597 -0.995374122776739
lowerback 9.477610679423968 -1.6636299687480443 -1.5761029601751309
upperback -0.1088019780292028 -2.243616875759602 2.4340962750260395
thorax -5.3006793525592855 -1.053510483373687 3.7540774467611184
lowerneck -18.36532242928744 -2.140345001775125 -1.8651773343949412
upperneck 22.072575163238596 -2.5222297659377126 -0.5604120431158657
head 10.077505450895597 -1.2887936226266707 -0.24308819290255462
rclavicle -1.3608693481738344E-15 -7.803128471602478E-16
rhumerus -36.02538247348076 -24.648579511884474 -77.23893111119087
rradius 18.11627552789735
rwrist 8.014045654970172
rhand -17.880359551663005 25.26978702616036
rfingers 7.1250200000000214
rthumb 8.381826534150846 -4.537617059404724
lclavicle -3.188097822811709E-15 -1.5115721223682498E-15
lhumerus -28.220316239564774 -2.686882609638823 81.17999358744389
lradius 31.030841009579675
lwrist 7.348921014718728
lhand -27.70359693769051 25.744793761560004
lfingers 7.125020000000004
lthumb -1.1163933188692283 55.740330206451105
rfemur -20.07702483370623 6.63903862676136 23.705290041216614
rtibia 20.753657561584358
rfoot -9.141093994549006 -6.150991211924981
rtoes 6.241925408865429
lfemur 14.3605520758354 -2.8347159366732178 -24.840898175115456
ltibia 40.68603337702556
lfoot 2.567665776257538 -14.877790384275539
ltoes -7.59195332383938
389
root 0 0 0 -2.59848988027017 0.08071513637505445 -2.1751425163885685
lowerback 9.900536194151817 -1.501121918307037 -0.41443744244292935
upperback 0.10825370469369194 -1.8863089911844069 2.5870296694125794
thorax -5.377166720740287 -0.9000831461331933 3.22012081890312
lowerneck -17.478481048918407 -2.1590579481370384 -1.666438871694617
upperneck 20.733814668908874 -2.5007925157818107 -0.6202418627492345
head 9.424786472148883 -1.3096582582280667 -0.27153941059749104
rclavicle -1.651656697241351E-15 -1.7646536166896794E-15
rhumerus -35.976696846297386 -24.505558875820295 -77.36214043746286
rradius 18.009975229915284
rwrist 8.312233346507906
rhand -17.83898790677787 25.411298672198967
rfingers 7.125020000000021
rthumb 8.422476425778537 -4.386569029055259
lclavicle -4.107048085342498E-15 -2.819885407718763E-15
lhumerus -29.21983807612515 -2.276891153881658 82.09340967315316
lradius 30.25639409297419
lwrist 7.067078672359074
lhand -27.569322194442456 25.402302983529847
lfingers 7.125020000000012
lthumb -0.9797454604190738 55.390341870132545
rfemur -19.89048918715085 6.638679289535091 24.94296408623717
rtibia 23.4965570632844
rfoot -9.370647460079583 -5.5190979106959075
rtoes 8.512214831191038
lfemur 2.1368495087788473 -0.973826180889019 -20.033734194762364
ltibia 55.57478078525679
lfoot 16.041938008756254 -21.02813502390965
ltoes 1.4326043226028204
390
root 0 0 0 -3.437592593275001 -0.8257910524526166 -4.168843390418658
lowerback 11.374286873538846 -1.1725455182664057 1.3687483470434803
upperback 0.7955001444238651 -1.2104486715704816 2.9819129727035323
thorax -5.5294711807982315 -0.6010314361540894 2.5377034654399284
lowerneck -16.498481281009727 -2.5014681639493452 -1.6841773928178299
upperneck 17.706308731509083 -2.8697531310445603 -0.38408550901472416
head 8.203709471101103 -1.5335089882533302 -0.2091310466541232
rclavicle -1.0644563411431983E-15 -4.1391020362838145E-15
rhumerus -35.3017756964932 -23.865440214151995 -77.68591243446424
rradius 18.26907005783191
rwrist 8.364337107583225
rhand -17.80949303332911 25.799156966718336
rfingers 7.1250200000000214
rthumb 8.449489839889917 -3.9966377588606363
lclavicle -3.579370868954151E-15 -5.4896903059453695E-15
lhumerus -29.673233863751378 -2.0342106399851057 83.01866233334886
lradius 29.520764970587145
lwrist 6.729640208121021
lhand -27.564481105722706 24.961178349726033
lfingers 7.125020000000018
lthumb -0.9721051873813709 54.94793389740682
rfemur -18.82106644502475 6.8573363392508835 26.234274702413842
rtibia 25.251206768306435
rfoot -9.517789168090651 -5.641224580482857
rtoes 9.80100666897647
lfemur -8.975872693399713 1.2512726473158242 -14.102394178027085
ltibia 64.24708639005857
lfoot 13.79596185922006 -18.507054794487967
ltoes -6.92129787839367
391
root 0 0 0 -3.851344635983046 -2.117420489530398 -5.173608726449328
lowerback 11.777462491863345 -0.5015123630691812 2.5077900775383455
upperback 0.6546724682656457 -0.16802107366541374 3.0121886815253647
thorax -5.9277983587831145 -0.10848517668018154 1.7698494437595103
lowerneck -15.848051470947226 -2.708358953395046 -1.5060614934984735
upperneck 18.989549886927144 -3.2391399491656165 -0.1850139275412599
head 8.645723864046285 -1.675821171000694 -0.22249995035676423
rclavicle -1.5600696594926762E-15 -5.3045435177934055E-15
rhumerus -34.419066279275555 -22.962559055125297 -78.08228503551712
rradius 18.677342758950168
rwrist 8.322670682376057
rhand -17.76287516935784 26.239998421285655
rfingers 7.1250200000000214
rthumb 8.4941343566037 -3.551035349309984
lclavicle -3.883099055332144E-15 -6.525598560025222E-15
lhumerus -30.52967181455035 -1.3003329354769602 83.61726999659906
lradius 28.510688366887074
lwrist 6.471388281141954
lhand -27.66971750381008 24.569001984223334
lfingers 7.125020000000024
lthumb -1.0732062391321229 54.55447427381273
rfemur -14.085552403216582 7.554584855045903 29.304775586954946
rtibia 25.97605824891175
rfoot -12.325144928468207 -5.828610034293561
rtoes 10.629734342947716
lfemur -18.152650514418017 3.640560748876175 -11.762828537343152
ltibia 71.20868920949721
lfoot 8.066721287978776 -14.517893576684635
ltoes -9.593204373232087
